<svg xmlns="http://www.w3.org/2000/svg" viewBox="0 0 256 256" width="256" height="256">
  <defs>
    <linearGradient id="starGrad" x1="0%" y1="0%" x2="100%" y2="100%">
      <stop offset="0%" stop-color="#FFEE58"/>
      <stop offset="50%" stop-color="#FFE000"/>
      <stop offset="100%" stop-color="#FFD600"/>
    </linearGradient>
    <filter id="shadow" x="-30%" y="-30%" width="160%" height="160%">
      <feDropShadow dx="0" dy="3" stdDeviation="6" flood-color="#000" flood-opacity="0.2"/>
    </filter>
  </defs>
  <path d="M122 52Q128 40 134 52L155 95L204 99Q218 100 208 109L172 142L182 191Q185 205 172 197L128 170L84 197Q71 205 74 191L84 142L48 109Q38 100 52 99L101 95Z"
    fill="url(#starGrad)" stroke="#FFC107" stroke-width="2" stroke-linejoin="round" filter="url(#shadow)"/>
  <ellipse cx="108" cy="126" rx="11" ry="13" fill="#5D4037"/>
  <ellipse cx="148" cy="126" rx="11" ry="13" fill="#5D4037"/>
  <circle cx="111" cy="122" r="4" fill="rgba(255,255,255,0.55)"/>
  <circle cx="151" cy="122" r="4" fill="rgba(255,255,255,0.55)"/>
</svg>
